HIERARCHY
ROOT SpineBase
{
  OFFSET 0.000000 0.000000 0.000000
  CHANNELS 6 Xposition Yposition Zposition Zrotation Xrotation Yrotation
  JOINT SpineMid
  {
    OFFSET 0.000000 29.642534 0.000000
    CHANNELS 3 Zrotation Xrotation Yrotation
    JOINT SpineShoulder
    {
      OFFSET 0.016368 22.004481 -0.746190
      CHANNELS 3 Zrotation Xrotation Yrotation
      JOINT Neck
      {
        OFFSET 0.012693 7.287518 -0.563713
        CHANNELS 3 Zrotation Xrotation Yrotation
        JOINT Head
        {
          OFFSET -3.905668 13.436816 -1.181328
          CHANNELS 3 Zrotation Xrotation Yrotation
          End Site
          {
            OFFSET 0 0 0
          }
        }
      }
      JOINT ShoulderLeft
      {
        OFFSET -16.944032 -4.820877 3.519282
        CHANNELS 3 Zrotation Xrotation Yrotation
        JOINT ElbowLeft
        {
          OFFSET -1.715262 -26.825189 1.387916
          CHANNELS 3 Zrotation Xrotation Yrotation
          JOINT WristLeft
          {
            OFFSET 1.591864 -21.742742 -6.818209
            CHANNELS 3 Zrotation Xrotation Yrotation
            JOINT HandLeft
            {
              OFFSET 1.551762 -5.153197 -0.981990
              CHANNELS 3 Zrotation Xrotation Yrotation
              JOINT HandTipLeft
              {
                OFFSET 2.510442 -5.067117 0.425809
                CHANNELS 3 Zrotation Xrotation Yrotation
                End Site
                {
                  OFFSET 0 0 0
                }
              }
              JOINT ThumbLeft
              {
                OFFSET 3.667080 1.808321 -3.238957
                CHANNELS 3 Zrotation Xrotation Yrotation
                End Site
                {
                  OFFSET 0 0 0
                }
              }
            }
          }
        }
      }
      JOINT ShoulderRight
      {
        OFFSET 14.756093 -2.050810 -6.186282
        CHANNELS 3 Zrotation Xrotation Yrotation
        JOINT ElbowRight
        {
          OFFSET 7.087704 -24.110108 0.454462
          CHANNELS 3 Zrotation Xrotation Yrotation
          JOINT WristRight
          {
            OFFSET -1.159623 -21.954227 -6.566399
            CHANNELS 3 Zrotation Xrotation Yrotation
            JOINT HandRight
            {
              OFFSET -2.194623 -5.969282 -1.270789
              CHANNELS 3 Zrotation Xrotation Yrotation
              JOINT HandTipRight
              {
                OFFSET -0.885929 -4.623314 -1.196210
                CHANNELS 3 Zrotation Xrotation Yrotation
                End Site
                {
                  OFFSET 0 0 0
                }
              }
              JOINT ThumbRight
              {
                OFFSET 3.618562 0.306370 -1.056178
                CHANNELS 3 Zrotation Xrotation Yrotation
                End Site
                {
                  OFFSET 0 0 0
                }
              }
            }
          }
        }
      }
    }
  }
  JOINT HipLeft
  {
    OFFSET -6.564417 -0.191807 -1.550506
    CHANNELS 3 Zrotation Xrotation Yrotation
    JOINT KneeLeft
    {
      OFFSET 3.568175 -27.045565 5.149143
      CHANNELS 3 Zrotation Xrotation Yrotation
      JOINT AnkleLeft
      {
        OFFSET 3.839582 -33.026139 5.816553
        CHANNELS 3 Zrotation Xrotation Yrotation
        JOINT FootLeft
        {
          OFFSET 3.799322 -7.632773 -5.705025
          CHANNELS 3 Zrotation Xrotation Yrotation
          End Site
          {
            OFFSET 0 0 0
          }
        }
      }
    }
  }
  JOINT HipRight
  {
    OFFSET 7.147380 1.931277 -5.234812
    CHANNELS 3 Zrotation Xrotation Yrotation
    JOINT KneeRight
    {
      OFFSET 7.577669 -24.813178 -0.954555
      CHANNELS 3 Zrotation Xrotation Yrotation
      JOINT AnkleRight
      {
        OFFSET -0.460038 -37.416893 10.798420
        CHANNELS 3 Zrotation Xrotation Yrotation
        JOINT FootRight
        {
          OFFSET -0.676041 -8.010209 -5.628655
          CHANNELS 3 Zrotation Xrotation Yrotation
          End Site
          {
            OFFSET 0 0 0
          }
        }
      }
    }
  }
}
MOTION
Frames: 14
Frame Time: 0.033333
-31.104258 68.705993 347.926284 -0.000000 0.000000 15.039920 0.000000 0.000000 -15.039920 -0.000000 0.000000 0.000000 -0.000000 0.000000 0.000000 0.000000 0.000000 0.000000 -0.000000 0.000000 0.000000 -0.000000 0.000000 0.000000 -0.000000 0.000000 0.000000 -0.000000 0.000000 0.000000 0.000000 0.000000 0.000000 0.000000 0.000000 0.000000 -0.000000 0.000000 0.000000 -0.000000 0.000000 0.000000 -0.000000 0.000000 0.000000 -0.000000 0.000000 0.000000 0.000000 0.000000 0.000000 0.000000 0.000000 0.000000 0.000000 0.000000 -15.039920 -0.000000 0.000000 0.000000 -0.000000 0.000000 0.000000 0.000000 0.000000 0.000000 0.000000 0.000000 -15.039920 -0.000000 0.000000 0.000000 -0.000000 0.000000 0.000000 0.000000 0.000000 0.000000
-31.084314 68.676901 347.923066 0.047969 0.035739 15.152220 -0.055643 -0.021958 -15.152245 -0.000000 0.000000 0.000000 -0.000000 0.000000 0.000000 0.000000 0.000000 0.000000 -0.000000 0.000000 0.000000 -0.000000 0.000000 0.000000 0.500103 -0.836157 -0.343469 -9.347769 5.236188 2.371272 0.000000 0.000000 0.000000 0.000000 0.000000 0.000000 -0.000000 0.000000 0.000000 0.503787 -0.801886 -0.105043 -0.505305 0.800930 0.112101 -1.920527 -2.750573 0.980931 0.000000 0.000000 0.000000 0.000000 0.000000 0.000000 -0.055643 -0.021958 -15.152245 -0.000000 0.000000 0.000000 -1.978875 2.452050 2.721663 0.000000 0.000000 0.000000 -0.055643 -0.021958 -15.152245 -0.000000 0.000000 0.000000 -0.000000 0.000000 0.000000 0.000000 0.000000 0.000000
-31.066993 68.652406 347.921448 0.087421 0.062523 15.252147 -0.100790 -0.037323 -15.252227 -0.000000 0.000000 0.000000 -0.000000 0.000000 0.000000 0.000000 0.000000 0.000000 -0.000000 0.000000 0.000000 -0.000000 0.000000 0.000000 1.152613 -1.896082 -0.771671 -17.171468 9.242130 5.116686 0.000000 0.000000 0.000000 0.000000 0.000000 0.000000 -0.000000 0.000000 0.000000 0.853344 -1.434501 -0.169479 -0.400617 0.751141 0.336540 -4.202599 -4.192060 1.646104 0.000000 0.000000 0.000000 0.000000 0.000000 0.000000 -0.100790 -0.037323 -15.252227 -0.000000 0.000000 0.000000 -3.803981 4.555462 5.192247 0.000000 0.000000 0.000000 -0.100790 -0.037323 -15.252227 -0.000000 0.000000 0.000000 -0.302527 -0.842152 0.282832 0.000000 0.000000 0.000000
-31.052295 68.632508 347.921430 0.118384 0.080376 15.339936 -0.135430 -0.046194 -15.340074 -0.000000 0.000000 0.000000 -0.000000 0.000000 0.000000 0.000000 0.000000 0.000000 -0.000000 0.000000 0.000000 -0.000000 0.000000 0.000000 1.984998 -3.205353 -1.288314 -23.461365 12.173083 7.878927 0.000000 0.000000 0.000000 0.000000 0.000000 0.000000 -0.000000 0.000000 0.000000 1.046113 -1.892274 -0.196727 -1.053175 1.888354 0.231361 -5.287260 -6.079276 2.264809 0.000000 0.000000 0.000000 0.000000 0.000000 0.000000 -0.135430 -0.046194 -15.340074 -0.000000 0.000000 0.000000 -5.415612 6.312803 7.354891 0.000000 0.000000 0.000000 -0.135430 -0.046194 -15.340074 -0.000000 0.000000 0.000000 -0.345726 -1.112171 0.335652 0.000000 0.000000 0.000000
-31.040219 68.617206 347.923013 0.140879 0.089314 15.415766 -0.159552 -0.048652 -15.415943 -0.000000 0.000000 0.000000 -0.000000 0.000000 0.000000 0.000000 0.000000 0.000000 -0.000000 0.000000 0.000000 -0.537600 0.692569 0.222195 3.514098 -5.432319 -2.051121 -28.357152 14.256724 10.435252 0.000000 0.000000 0.000000 0.000000 0.000000 0.000000 -0.000000 0.000000 0.000000 1.080634 -2.171670 -0.189184 -1.088576 2.167701 0.230262 -6.422684 -6.181862 2.509740 0.000000 0.000000 0.000000 0.000000 0.000000 0.000000 -0.159552 -0.048652 -15.415943 -0.000000 0.000000 0.000000 -6.767095 7.740940 9.167457 0.000000 0.000000 0.000000 -0.159552 -0.048652 -15.415943 -0.000000 0.000000 0.000000 -0.317061 -1.279724 0.329773 0.000000 0.000000 0.000000
-31.030767 68.606501 347.926196 0.154920 0.089350 15.479759 -0.173148 -0.044761 -15.479948 -0.000000 0.000000 0.000000 -0.000000 0.000000 0.000000 0.000000 0.000000 0.000000 -0.000000 0.000000 0.000000 -0.680966 0.772360 0.274221 4.753875 -7.081112 -2.661158 -31.911399 15.624062 12.545356 0.000000 0.000000 0.000000 0.000000 0.000000 0.000000 -0.000000 0.000000 0.000000 0.956519 -2.271031 -0.148108 -1.262613 3.619660 -0.231531 -6.748346 -6.640799 2.782934 0.000000 0.000000 0.000000 0.000000 0.000000 0.000000 -0.173148 -0.044761 -15.479948 -0.000000 0.000000 0.000000 -7.824343 8.863256 10.600993 0.000000 0.000000 0.000000 -0.948566 -0.269845 -15.585296 0.686452 0.425115 0.100673 -0.216624 -1.344268 0.265279 0.000000 0.000000 0.000000
-31.028036 68.597970 347.933599 0.153322 0.075643 15.552830 -0.167990 -0.031763 -15.552978 -0.000000 0.000000 0.000000 -0.000000 0.000000 0.000000 0.000000 0.000000 0.000000 -0.000000 0.000000 0.000000 -0.879220 0.831074 0.342353 5.639642 -8.358588 -3.121652 -32.802090 15.454496 12.831709 0.000000 0.000000 0.000000 0.000000 0.000000 0.000000 -0.110524 0.796224 0.232852 0.669089 -3.093938 -0.261959 -1.436681 4.903583 -0.655822 -5.264252 -5.287215 2.459972 0.000000 0.000000 0.000000 0.000000 0.000000 0.000000 -0.167990 -0.031763 -15.552978 -0.000000 0.000000 0.000000 -9.935655 10.622578 13.264769 0.000000 0.000000 0.000000 -1.036723 -0.166236 -15.634552 0.800365 0.363596 0.077534 0.588616 -0.892856 -0.335655 0.000000 0.000000 0.000000
-31.024055 68.596078 347.943996 0.146350 0.047686 15.587317 -0.153781 -0.006607 -15.587386 -0.000000 0.000000 0.000000 -0.000000 0.000000 0.000000 0.000000 0.000000 0.000000 0.668715 -0.572768 0.074575 -1.733644 1.402912 0.344908 4.233582 -9.729438 -3.404488 -29.147572 16.304973 12.697164 0.000000 0.000000 0.000000 0.000000 0.000000 0.000000 -0.402263 0.726490 0.208779 1.231740 -3.952426 -0.252118 -2.198555 9.213066 -1.642326 -5.176169 -8.115841 3.256908 0.000000 0.000000 0.000000 0.000000 0.000000 0.000000 -0.153781 -0.006607 -15.587386 -0.000000 0.000000 0.000000 -10.294798 11.034452 13.776689 0.000000 0.000000 0.000000 -0.153781 -0.006607 -15.587386 0.338907 -0.854273 0.110604 0.290560 -0.028173 -0.480189 0.000000 0.000000 0.000000
-31.022220 68.603319 347.955133 0.134687 0.017134 15.653444 -0.134315 0.019842 -15.653441 -0.000000 0.000000 0.000000 -0.000000 0.000000 0.000000 0.000000 0.000000 0.000000 0.696043 -0.686988 0.084121 -1.908886 1.428019 0.381028 5.097234 -9.581200 -3.497179 -27.118747 15.189582 11.413831 0.000000 0.000000 0.000000 0.000000 0.000000 0.000000 -0.000000 0.000000 0.000000 0.693341 -2.410190 -0.065903 -3.305935 11.781290 -2.421352 -3.869262 -9.298992 3.669613 0.000000 0.000000 0.000000 0.000000 0.000000 0.000000 -0.134315 0.019842 -15.653441 -0.000000 0.000000 0.000000 -8.551670 10.719194 12.113350 0.000000 0.000000 0.000000 -0.107523 1.174784 -15.300745 0.522610 -2.486986 -0.253435 0.312236 0.556934 -0.424975 0.000000 0.000000 0.000000
-30.994817 68.605559 347.978130 0.158257 -0.033133 15.751900 -0.143320 0.074851 -15.751760 -0.000000 0.000000 0.000000 -0.000000 0.000000 0.000000 0.000000 0.000000 0.000000 0.720780 -0.809205 0.094130 -2.065815 1.528490 0.417854 6.631567 -7.939700 -3.239316 -27.956104 12.520137 9.547441 0.000000 0.000000 0.000000 0.000000 0.000000 0.000000 -0.000000 0.000000 0.000000 0.163917 -1.117362 0.011627 -5.036155 16.643466 -3.786504 -0.836706 -13.340753 4.883276 0.000000 0.000000 0.000000 0.000000 0.000000 0.000000 -0.143320 0.074851 -15.751760 -0.000000 0.000000 0.000000 -4.526571 5.108587 6.043385 0.000000 0.000000 0.000000 -0.002752 2.102000 -15.130660 0.730605 -3.920753 -0.473434 0.196084 1.305581 -0.471558 0.000000 0.000000 0.000000
-30.990986 68.622776 348.018173 0.146168 -0.119459 15.859165 -0.107960 0.154856 -15.858866 -0.000000 0.000000 0.000000 -0.000000 0.000000 0.000000 0.000000 0.000000 0.000000 0.705352 -0.984299 0.105488 -2.107487 1.700951 0.431688 8.694925 -3.034964 -2.287873 -30.713529 9.524612 7.319213 0.000000 0.000000 0.000000 0.000000 0.000000 0.000000 -0.678072 -0.755295 -0.239677 -0.039430 1.666238 0.409787 -2.874864 16.544399 -5.131075 -0.482706 -12.872697 5.206490 0.000000 0.000000 0.000000 0.000000 0.000000 0.000000 -0.107960 0.154856 -15.858866 -0.000000 0.000000 0.000000 -2.631378 1.186325 2.594058 0.000000 0.000000 0.000000 -1.049469 1.511731 -15.474847 1.678028 -2.991484 -0.199889 0.303491 1.247858 -0.607823 0.000000 0.000000 0.000000
-31.063616 68.645076 347.969787 0.025325 -0.060252 15.627985 -0.008157 0.064847 -15.627967 -0.000000 0.000000 0.000000 -0.000000 0.000000 0.000000 0.000000 0.000000 0.000000 0.716831 -0.996486 0.107036 -2.156592 1.698495 0.442244 8.714245 -0.099945 -1.604585 -27.568526 8.091463 5.762373 0.000000 0.000000 0.000000 0.000000 0.000000 0.000000 1.373115 -1.122126 -0.289480 -4.574411 5.872604 1.193811 -0.419335 11.454162 -5.357626 -1.489995 -7.231378 4.143015 0.000000 0.000000 0.000000 0.000000 0.000000 0.000000 -0.008157 0.064847 -15.627967 -0.000000 0.000000 0.000000 -5.704086 7.823535 8.323617 0.000000 0.000000 0.000000 -1.931513 0.326485 -15.628727 2.619949 -1.092932 0.225072 0.272703 0.792699 -0.861373 0.000000 0.000000 0.000000
-31.185157 68.615313 347.853984 -0.136009 0.119679 15.213051 0.099839 -0.151175 -15.212778 -0.000000 0.000000 0.000000 -0.000000 0.000000 0.000000 0.000000 0.000000 0.000000 0.619399 -0.742440 0.083536 -1.892899 1.119780 0.372350 5.755001 4.721084 0.097344 -21.154964 6.180057 3.679839 0.000000 0.000000 0.000000 0.000000 0.000000 0.000000 5.548389 -0.156452 0.065322 -13.562433 9.176269 2.462649 4.143485 3.656015 -5.176731 -3.360041 -3.397223 3.247208 0.000000 0.000000 0.000000 0.000000 0.000000 0.000000 0.099839 -0.151175 -15.212778 -0.000000 0.000000 0.000000 -8.429575 11.820675 12.529010 0.000000 0.000000 0.000000 -2.842277 -1.439057 -15.776870 3.610342 1.747036 0.769906 -0.257414 -0.183286 -0.897273 0.000000 0.000000 0.000000
-31.226267 68.630823 347.722249 -0.114085 0.359572 14.529244 0.020230 -0.376693 -14.528820 -0.000000 0.000000 0.000000 -0.250269 0.873071 0.233988 0.000000 0.000000 0.000000 -0.000000 0.000000 0.000000 -0.964630 0.015802 0.303964 3.536478 7.019248 1.155750 -16.223359 5.791734 3.394448 0.000000 0.000000 0.000000 0.000000 0.000000 0.000000 14.760845 1.652272 0.531411 -28.795180 8.189010 3.521102 11.103630 -5.272821 -3.930119 -9.488790 2.654835 2.696284 0.000000 0.000000 0.000000 0.000000 0.000000 0.000000 0.020230 -0.376693 -14.528820 -0.000000 0.000000 0.000000 -13.748716 18.677803 20.457282 0.000000 0.000000 0.000000 -3.916475 -3.261162 -15.700722 4.578140 4.848172 1.270459 -0.642978 -1.379817 -1.066166 0.000000 0.000000 0.000000
